<svg width="150" height="33" viewBox="0 0 150 33" fill="none" xmlns="http://www.w3.org/2000/svg">
<path d="M12.6883 32.0104H6.68372C0.728938 32.0104 -1.70655 27.7872 1.27085 22.6298C1.55115 22.1439 1.8439 21.6269 2.15534 21.0975L2.77823 19.995L5.55007 15.1925C6.50308 13.7038 7.85474 13.8159 8.62089 15.4915L14.7003 28.8711C15.4976 30.5965 14.5881 32.0104 12.6883 32.0104Z" fill="#99A0AE"/>
<path d="M28.3481 32.0102H19.9329C18.0643 32.0102 17.3853 30.7644 18.4878 29.2009L27.0338 17.2478C28.1363 15.703 29.8181 15.784 30.7711 17.4284L33.1941 21.6204L33.7734 22.6295V22.6606C36.7321 27.7995 34.2966 32.0102 28.3481 32.0102Z" fill="#99A0AE"/>
<path d="M25.426 13.7845L10.894 12.2646C9.02539 12.0715 8.26547 10.614 9.13751 9.00692C9.40535 8.55222 9.66696 8.10374 9.91611 7.66149L12.1024 3.86812C15.0798 -1.28937 19.957 -1.28937 22.9344 3.86812L27.1451 11.1621C28.0919 12.8003 27.3258 13.9776 25.426 13.7845Z" fill="#99A0AE"/>
<path d="M52.0058 10.122H55.0206V23.9937H52.0058V22.2309C51.6819 22.5174 51.3829 22.7728 51.0715 23.0282C50.108 23.8824 48.8583 24.3427 47.5709 24.3176C46.3325 24.3073 45.1299 23.9014 44.1388 23.159C41.5662 21.2903 41.4043 18.0825 41.4043 17.0921C41.4037 16.1286 41.568 15.1722 41.8901 14.2642C42.3033 12.9947 43.0968 11.8828 44.1631 11.0795C45.2294 10.2761 46.5169 9.8201 47.8512 9.77319C49.6762 9.77319 50.6728 10.5767 51.9933 11.7353L52.0058 10.122ZM44.8115 19.1788C45.0763 19.8779 45.5532 20.4766 46.1754 20.891C46.7976 21.3054 47.5338 21.5147 48.281 21.4897C49.017 21.4958 49.74 21.2951 50.3676 20.9104C52.1989 19.7892 52.2363 17.5717 52.2363 16.899C52.2694 15.6853 51.8216 14.5077 50.9905 13.6226C50.2902 12.9493 49.3583 12.5703 48.3868 12.5637C47.7947 12.5643 47.2115 12.7074 46.6864 12.9811C44.662 14.0088 44.4378 16.1578 44.4066 16.8679C44.3738 17.6583 44.5119 18.4466 44.8115 19.1788Z" fill="#99A0AE"/>
<path d="M61.0556 0.106445V23.963H57.9785V0.106445H61.0556Z" fill="#99A0AE"/>
<path d="M73.8063 10.122H76.8273V23.9937H73.8063V22.2309C73.4886 22.5174 73.1834 22.7728 72.8782 23.0282C71.9146 23.8824 70.665 24.3427 69.3776 24.3176C68.1373 24.3078 66.9325 23.9018 65.9392 23.159C63.3729 21.2903 63.211 18.0825 63.211 17.0921C63.2072 16.1289 63.3695 15.1723 63.6906 14.2642C64.1045 12.9951 64.8982 11.8838 65.9644 11.0806C67.0305 10.2774 68.3176 9.82098 69.6516 9.77319C71.4829 9.77319 72.4795 10.5767 73.7938 11.7353L73.8063 10.122ZM66.612 19.1788C66.8775 19.8773 67.3546 20.4755 67.9766 20.8898C68.5986 21.3041 69.3345 21.5138 70.0814 21.4897C70.8176 21.4965 71.5408 21.2957 72.1681 20.9104C73.9994 19.7892 74.0367 17.5717 74.0367 16.899C74.0698 15.6853 73.6221 14.5077 72.791 13.6226C72.093 12.9497 71.1631 12.5706 70.1935 12.5637C69.6013 12.5631 69.0177 12.7063 68.4931 12.9811C66.4687 14.0088 66.2444 16.1578 66.2133 16.8679C66.1743 17.6581 66.3104 18.4472 66.612 19.1788Z" fill="#99A0AE"/>
<path d="M89.7022 10.1222H92.7543V24.3178C92.692 26.149 92.5301 27.7498 91.2781 29.1949C90.4061 30.2227 88.9298 31.2878 85.9462 31.2878C85.3156 31.2997 84.6864 31.2221 84.0775 31.0574C83.2366 30.8626 82.4528 30.4739 81.7887 29.9224C81.1247 29.3708 80.5988 28.6716 80.253 27.8807C79.9513 27.1309 79.7563 26.3426 79.6737 25.5386H82.8255C82.7993 26.2914 83.0373 27.0296 83.4983 27.6253C83.9467 28.136 84.6568 28.5534 86.1953 28.5534C87.0185 28.5873 87.8268 28.3267 88.4751 27.8184C89.7209 26.7906 89.8891 25.1836 89.8268 22.1314C89.5652 22.393 89.3098 22.6796 89.0233 22.935C88.3443 23.5578 87.4162 24.2555 85.2859 24.2555C83.9837 24.247 82.7238 23.7919 81.7168 22.9661C79.2813 21.0102 79.1505 18.0204 79.1505 16.9926C79.1455 16.0543 79.297 15.1217 79.599 14.2332C79.9748 12.9591 80.7481 11.8385 81.8059 11.035C82.8638 10.2315 84.1508 9.78728 85.479 9.76715C86.5481 9.7564 87.6003 10.034 88.5249 10.5707C88.9526 10.8164 89.3516 11.1089 89.7147 11.4427L89.7022 10.1222ZM82.3833 18.8426C82.5598 19.3608 82.8413 19.8371 83.2102 20.2415C83.5791 20.646 84.0275 20.9701 84.5274 21.1934C85.0272 21.4167 85.5677 21.5345 86.1152 21.5394C86.6626 21.5444 87.2052 21.4363 87.709 21.222C89.833 20.2565 89.9887 17.8833 89.9887 17.1733C89.9976 16.0941 89.6971 15.0349 89.1229 14.1211C88.7458 13.6416 88.2627 13.2559 87.7116 12.9944C87.1604 12.7328 86.5562 12.6025 85.9462 12.6137C83.4547 12.6137 82.1591 14.4824 82.0905 16.9179C82.0601 17.5664 82.1597 18.2144 82.3833 18.8239V18.8426Z" fill="#99A0AE"/>
<path d="M98.6591 11.6418C99.1138 11.1311 100.104 9.77319 102.004 9.77319C102.853 9.82196 103.691 9.9854 104.496 10.259L103.206 13.1804C102.643 12.8242 102.002 12.6104 101.337 12.5575C100.818 12.5675 100.314 12.7347 99.8924 13.0371C98.9269 13.8095 98.8024 15.2546 98.7027 16.4069V23.9563H95.8125V10.0597H98.7027L98.6591 11.6418Z" fill="#99A0AE"/>
<path d="M114.912 10.122H117.933V23.9937H114.912V22.2309C114.588 22.5174 114.289 22.7728 113.977 23.0282C113.017 23.8836 111.769 24.3442 110.483 24.3176C109.243 24.3078 108.038 23.9018 107.045 23.159C104.472 21.2904 104.316 18.0825 104.316 17.0921C104.313 16.1289 104.475 15.1723 104.796 14.2642C105.21 12.9942 106.005 11.8822 107.072 11.0788C108.14 10.2755 109.428 9.81973 110.763 9.77319C112.595 9.77319 113.591 10.5767 114.906 11.7353L114.912 10.122ZM107.717 19.1788C107.983 19.8773 108.46 20.4755 109.082 20.8898C109.704 21.3041 110.44 21.5138 111.187 21.4897C111.923 21.4965 112.646 21.2957 113.274 20.9104C115.105 19.7892 115.142 17.5717 115.142 16.899C115.175 15.6853 114.728 14.5077 113.896 13.6226C113.198 12.9497 112.269 12.5706 111.299 12.5637C110.705 12.5635 110.119 12.7067 109.592 12.9811C107.574 14.0088 107.35 16.1578 107.313 16.8679C107.28 17.6583 107.418 18.4466 107.717 19.1788Z" fill="#99A0AE"/>
<path d="M123.841 10.0602V11.2499C124.934 10.2813 126.331 9.724 127.791 9.67397C128.418 9.66892 129.039 9.79483 129.615 10.0437C130.191 10.2925 130.709 10.6588 131.135 11.1191C132.257 12.3088 132.381 13.6854 132.45 15.2301V23.9505H129.497V15.853C129.466 14.7941 129.466 13.704 128.501 12.9628C128.027 12.6419 127.466 12.4745 126.894 12.4832C126.23 12.4744 125.583 12.6871 125.054 13.0876C124.524 13.4881 124.144 14.0535 123.972 14.6944C123.858 15.1802 123.804 15.678 123.81 16.1769V23.9443H120.852V10.0602H123.841Z" fill="#99A0AE"/>
<path d="M146.266 0.106445H149.25V23.9007H146.198V22.2936C144.659 23.5394 143.538 24.318 141.482 24.318C140.545 24.3226 139.62 24.1094 138.779 23.6951C136.213 22.4494 134.93 19.746 134.93 16.9181C134.93 15.6038 135.216 12.0036 138.667 10.3342C139.636 9.89215 140.685 9.65263 141.75 9.63036C142.269 9.63978 142.784 9.70452 143.289 9.82346C144.223 10.0788 144.834 10.4463 146.279 11.6921L146.266 0.106445ZM139.969 21.1351C140.607 21.4864 141.327 21.6646 142.055 21.6521C142.661 21.6682 143.264 21.5579 143.824 21.3282C146.266 20.3689 146.522 17.703 146.522 16.8683C146.548 16.0567 146.357 15.2528 145.967 14.5406C145.577 13.8284 145.002 13.234 144.304 12.8195C143.669 12.4844 142.966 12.299 142.249 12.2776C141.091 12.2955 139.987 12.7657 139.172 13.5876C138.357 14.4095 137.896 15.5178 137.888 16.6752C137.87 17.3791 137.901 19.9827 139.988 21.1351H139.969Z" fill="#99A0AE"/>
</svg>
