<svg width="131" height="40" viewBox="0 0 131 40" fill="none" xmlns="http://www.w3.org/2000/svg">
<path d="M53.6179 1.51668V27.398C53.6179 27.7051 53.496 27.9996 53.2788 28.2167C53.0617 28.4338 52.7672 28.5558 52.4601 28.5558H35.5586C34.6501 28.5558 33.6031 28.6389 32.8165 28.0794C32.5591 27.8895 32.354 27.6374 32.2204 27.3468C32.0867 27.0562 32.0288 26.7365 32.052 26.4175V15.7813C32.0076 15.0669 32.0188 14.3502 32.0852 13.6375C32.1464 13.1745 32.3609 12.7454 32.6946 12.4188C32.9841 12.1767 33.335 12.0194 33.7084 11.9645C34.3731 11.875 35.0457 11.8601 35.7137 11.9202C36.2677 11.9202 36.866 11.9202 37.4421 11.9202H45.6186C45.7709 11.9209 45.9218 11.8915 46.0626 11.8335C46.2034 11.7756 46.3313 11.6904 46.439 11.5827C46.5466 11.4751 46.6319 11.3471 46.6898 11.2063C46.7477 11.0655 46.7772 10.9146 46.7764 10.7624V1.51668C46.7779 1.21006 46.9003 0.916418 47.1172 0.699605C47.334 0.482792 47.6276 0.360343 47.9342 0.358887H52.4823C52.7889 0.360343 53.0826 0.482792 53.2994 0.699605C53.5162 0.916418 53.6386 1.21006 53.6401 1.51668H53.6179ZM39.1262 15.3659V25.1101C39.1254 25.2624 39.1549 25.4133 39.2128 25.5541C39.2707 25.6949 39.356 25.8228 39.4636 25.9305C39.5713 26.0381 39.6992 26.1234 39.84 26.1813C39.9808 26.2392 40.1317 26.2687 40.2839 26.2679H45.6186C45.7709 26.2687 45.9218 26.2392 46.0626 26.1813C46.2034 26.1234 46.3313 26.0381 46.439 25.9305C46.5466 25.8228 46.6319 25.6949 46.6898 25.5541C46.7477 25.4133 46.7772 25.2624 46.7764 25.1101V15.3659C46.7764 15.0588 46.6545 14.7643 46.4373 14.5472C46.2202 14.33 45.9257 14.2081 45.6186 14.2081H40.2839C39.9769 14.2081 39.6824 14.33 39.4653 14.5472C39.2481 14.7643 39.1262 15.0588 39.1262 15.3659Z" fill="#99A0AE"/>
<path d="M73.4172 38.3228V29.7142C73.4157 29.4075 73.2933 29.1139 73.0765 28.8971C72.8597 28.6803 72.566 28.5578 72.2594 28.5564H65.7004C64.7864 28.5564 63.8613 28.6561 63.0968 28.0578C62.3323 27.4595 61.8503 26.335 61.5069 25.3766L60.9252 23.7479C60.423 22.3372 59.917 20.9245 59.4074 19.5101C58.9309 18.1621 58.4508 16.8178 57.967 15.4772C57.7288 14.8124 57.4906 14.1477 57.258 13.4885C57.1956 13.3121 57.1767 13.1233 57.2028 12.9381C57.229 12.7529 57.2994 12.5767 57.4081 12.4245C57.5168 12.2722 57.6606 12.1485 57.8274 12.0637C57.9941 11.9789 58.1788 11.9356 58.3659 11.9373C60.0278 11.9373 61.6897 11.9373 63.3516 11.9373C63.4692 11.9208 63.5889 11.9463 63.6895 12.0094C63.7452 12.0685 63.7885 12.1382 63.8169 12.2143C63.9388 12.5135 64.0718 12.8071 64.1881 13.1062C64.382 13.5826 64.5648 14.0646 64.7421 14.5465C65.0855 15.5104 65.4068 16.4854 65.7614 17.4493C66.3153 19.0448 66.9191 20.6346 67.5008 22.2301C67.7335 22.8782 68.0548 23.5485 68.221 24.2188C68.2669 24.3784 68.3301 24.5326 68.4093 24.6786C68.509 24.8725 68.6032 25.0608 68.7029 25.2326V25.2658C68.8015 25.4503 68.9484 25.6046 69.128 25.7119C69.3076 25.8193 69.513 25.8757 69.7222 25.8752H72.2483C72.4004 25.8752 72.5509 25.8452 72.6914 25.787C72.8319 25.7289 72.9595 25.6436 73.067 25.5361C73.1745 25.4285 73.2598 25.3009 73.318 25.1604C73.3762 25.02 73.4061 24.8694 73.4061 24.7174V13.0841C73.4061 12.777 73.5281 12.4825 73.7452 12.2654C73.9623 12.0482 74.2568 11.9263 74.5639 11.9263H79.1064C79.414 11.9263 79.7091 12.0481 79.9271 12.265C80.1451 12.482 80.2683 12.7765 80.2698 13.0841V38.3283C80.2698 38.4809 80.2396 38.6319 80.1811 38.7727C80.1226 38.9135 80.0368 39.0414 79.9287 39.149C79.8206 39.2566 79.6923 39.3417 79.5512 39.3996C79.4101 39.4575 79.2589 39.4869 79.1064 39.4861H74.5639C74.4116 39.4869 74.2608 39.4574 74.12 39.3995C73.9792 39.3416 73.8512 39.2563 73.7436 39.1487C73.6359 39.041 73.5507 38.9131 73.4927 38.7723C73.4348 38.6315 73.4054 38.4806 73.4061 38.3283" fill="#99A0AE"/>
<path d="M90.2191 1.51668V10.7624C90.2191 11.0695 90.3411 11.3639 90.5582 11.5811C90.7754 11.7982 91.0698 11.9202 91.3769 11.9202H101.481C102.589 11.9202 103.847 11.7208 104.589 12.7234C105.143 13.4824 104.96 14.5903 104.96 15.4933V26.9161C104.956 27.1502 104.874 27.3763 104.728 27.5587C104.575 27.7726 104.388 27.9598 104.174 28.1126C103.971 28.2628 103.747 28.3823 103.509 28.4672C103.301 28.5438 103.082 28.585 102.861 28.5891H84.5133C84.3612 28.5891 84.2107 28.5591 84.0702 28.5009C83.9297 28.4427 83.8021 28.3575 83.6946 28.2499C83.5871 28.1424 83.5018 28.0148 83.4436 27.8743C83.3854 27.7339 83.3555 27.5833 83.3555 27.4313V1.51668C83.3569 1.21006 83.4794 0.916418 83.6962 0.699605C83.913 0.482792 84.2066 0.360343 84.5133 0.358887H89.0613C89.368 0.360343 89.6616 0.482792 89.8784 0.699605C90.0952 0.916418 90.2177 1.21006 90.2191 1.51668ZM90.2191 15.3659V25.1101C90.2191 25.4172 90.3411 25.7117 90.5582 25.9288C90.7754 26.146 91.0698 26.2679 91.3769 26.2679H96.7116C96.8639 26.2687 97.0148 26.2392 97.1556 26.1813C97.2964 26.1234 97.4243 26.0381 97.5319 25.9305C97.6396 25.8228 97.7249 25.6949 97.7828 25.5541C97.8407 25.4133 97.8701 25.2624 97.8694 25.1101V15.3659C97.8694 15.0588 97.7474 14.7643 97.5303 14.5472C97.3132 14.33 97.0187 14.2081 96.7116 14.2081H91.3769C91.0703 14.2095 90.7767 14.332 90.5598 14.5488C90.343 14.7656 90.2206 15.0592 90.2191 15.3659Z" fill="#99A0AE"/>
<path d="M108.128 13.1944C108.191 12.9918 108.292 12.8036 108.428 12.6404C108.765 12.2874 109.22 12.0706 109.707 12.031C110.533 11.9185 111.368 11.8888 112.2 11.9424C113.025 11.9756 113.862 11.9424 114.682 11.9424H127.739C128.33 11.8729 128.925 12.0335 129.401 12.3911C130.293 13.1445 130.093 14.3023 130.093 15.3438V23.6533C130.093 24.6172 130.054 25.5866 130.093 26.5561C130.103 26.8542 130.044 27.1506 129.921 27.4224C129.798 27.6942 129.614 27.9341 129.384 28.1238C128.747 28.6445 128.01 28.5559 127.24 28.5559H120.166C117.437 28.5559 114.708 28.5559 111.978 28.5559C111.031 28.5559 110.056 28.6501 109.175 28.2512C108.815 28.1095 108.508 27.8598 108.296 27.5364C108.084 27.2131 107.977 26.8319 107.99 26.4453C107.99 26.2181 108.018 25.991 108.018 25.7639V15.7371C107.973 15.0268 107.973 14.3145 108.018 13.6043C108.033 13.465 108.063 13.3277 108.106 13.1944H108.128ZM123.185 24.8277V15.6374C123.185 15.3857 123.104 15.1407 122.953 14.9394L122.908 14.8784C122.799 14.7363 122.659 14.621 122.499 14.5413C122.339 14.4617 122.162 14.4197 121.983 14.4186H116.083C115.872 14.419 115.664 14.4769 115.482 14.5862C115.301 14.6954 115.152 14.852 115.053 15.0391C114.967 15.2108 114.923 15.4008 114.926 15.5931V24.8886C114.923 25.1721 115.026 25.4464 115.214 25.6586V25.6919C115.324 25.8134 115.458 25.9106 115.608 25.9774C115.757 26.0442 115.919 26.079 116.083 26.0796H121.978C122.157 26.0788 122.334 26.0363 122.495 25.9556C122.655 25.8749 122.795 25.7581 122.903 25.6143L122.947 25.5589C123.097 25.3568 123.178 25.1124 123.18 24.8609" fill="#99A0AE"/>
<path d="M10.1038 4.09847L7.26193 5.72713L6.49746 6.15923L1.31786 9.12849C1.18091 9.2071 1.06712 9.32046 0.987987 9.45712C0.908857 9.59378 0.867188 9.7489 0.867188 9.90682C0.867188 10.0647 0.908857 10.2199 0.987987 10.3565C1.06712 10.4932 1.18091 10.6065 1.31786 10.6851L11.0123 16.2248C11.7139 16.6266 12.2969 17.2065 12.7026 17.9059C13.1082 18.6053 13.322 19.3993 13.3223 20.2078V34.8215C13.3216 34.9794 13.3626 35.1346 13.4411 35.2716C13.5196 35.4085 13.6328 35.5224 13.7694 35.6016C13.9059 35.6808 14.0609 35.7227 14.2188 35.7228C14.3766 35.723 14.5318 35.6815 14.6685 35.6026L20.9117 32.0572L23.399 30.6446C24.1017 30.2441 24.6857 29.6645 25.0915 28.9648C25.4973 28.2651 25.7104 27.4704 25.709 26.6616V13.1226C25.7087 12.3141 25.4949 11.52 25.0893 10.8207C24.6836 10.1213 24.1006 9.54138 23.399 9.13957L14.5688 4.09847C13.8889 3.70981 13.1194 3.50537 12.3363 3.50537C11.5532 3.50537 10.7836 3.70981 10.1038 4.09847Z" fill="#99A0AE"/>
<path d="M1.76571 16.3628V25.5365C1.7622 25.9289 1.86292 26.3151 2.05758 26.6557C2.25224 26.9964 2.53386 27.2793 2.87365 27.4754L8.68476 30.8879C8.75478 30.9289 8.83442 30.9508 8.9156 30.9511C8.99678 30.9514 9.07659 30.9302 9.14693 30.8897C9.21727 30.8492 9.27564 30.7908 9.31608 30.7204C9.35653 30.65 9.37763 30.5702 9.37722 30.489V21.2765C9.37986 20.8829 9.27887 20.4955 9.08439 20.1532C8.88992 19.8109 8.60881 19.5258 8.26929 19.3266L2.45263 15.9751C2.38413 15.9339 2.30543 15.9128 2.22551 15.9141C2.1065 15.9141 1.99237 15.9614 1.90822 16.0456C1.82407 16.1297 1.77679 16.2438 1.77679 16.3628" fill="#99A0AE"/>
</svg>
