<svg width="121" height="38" viewBox="0 0 121 38" fill="none" xmlns="http://www.w3.org/2000/svg">
<g clip-path="url(#clip0_162_21639)">
<path d="M22.4068 10.3083V27.6313C22.4068 29.5314 20.8708 31.0674 18.9707 31.0674V37.9396C24.6553 37.9396 29.279 33.3317 29.279 27.6313V10.3083C29.279 8.40814 30.8149 6.87219 32.7151 6.87219V0C27.0147 0 22.4068 4.60785 22.4068 10.3083Z" fill="#99A0AE"/>
<path d="M19.4606 9.56417L0 3.8479V11.8602L19.4606 17.5764V9.56417Z" fill="#99A0AE"/>
<path d="M19.4612 19.6191L5.7168 15.5813V23.5936L19.4612 27.6314V19.6191Z" fill="#99A0AE"/>
<path d="M48.3743 16.7371H45.1916V31.0515H41.5971V16.7371H39.5703V13.8394H41.5971V12.6201C41.5971 10.6408 42.1197 9.19989 43.1806 8.29732C44.2257 7.39475 45.8883 6.93555 48.1368 6.93555V9.89661C47.06 9.89661 46.3 10.1025 45.8566 10.4983C45.4133 10.91 45.2074 11.6067 45.2074 12.6043V13.8236H48.3901V16.7371H48.3743Z" fill="#99A0AE"/>
<path d="M57.1625 14.2828C58.0334 13.792 59.0468 13.5544 60.2344 13.5544V17.2439H59.3318C57.9384 17.2439 56.8775 17.5923 56.1649 18.3048C55.4524 19.0174 55.0882 20.2366 55.0882 21.9943V31.0516H51.5254V13.8395H55.0882V16.3413C55.6107 15.4546 56.3074 14.7737 57.1625 14.2828Z" fill="#99A0AE"/>
<path d="M79.1718 23.7678H66.0291C66.1399 25.1454 66.6466 26.2538 67.565 27.0772C68.4834 27.9164 69.6077 28.3281 70.9378 28.3281C72.8538 28.3281 74.2156 27.5205 75.0073 25.9213H78.8551C78.3325 27.5047 77.3983 28.8031 76.0207 29.8165C74.6589 30.83 72.9646 31.3367 70.9378 31.3367C69.291 31.3367 67.8184 30.9725 66.52 30.2282C65.2215 29.484 64.1923 28.4389 63.4639 27.1088C62.7197 25.7629 62.3555 24.2111 62.3555 22.4377C62.3555 20.6642 62.7197 19.1124 63.4322 17.7665C64.1448 16.4205 65.1582 15.3913 66.4566 14.6629C67.7551 13.9345 69.2593 13.5703 70.9378 13.5703C72.5688 13.5703 74.0097 13.9187 75.2765 14.6312C76.5432 15.3438 77.5408 16.3414 78.2375 17.6081C78.9501 18.8907 79.2985 20.3633 79.2985 22.026C79.2985 22.6752 79.2668 23.2452 79.1718 23.7678ZM75.5773 20.9017C75.5615 19.5874 75.0865 18.5424 74.1681 17.7506C73.2496 16.9589 72.1096 16.563 70.7636 16.563C69.5285 16.563 68.4834 16.9589 67.6125 17.7348C66.7416 18.5107 66.2191 19.5716 66.0449 20.9017H75.5773Z" fill="#99A0AE"/>
<path d="M82.6883 17.7664C83.4008 16.4363 84.3826 15.3912 85.6335 14.6628C86.8686 13.9186 88.2462 13.5544 89.7663 13.5544C90.8906 13.5544 91.999 13.7919 93.0916 14.2828C94.1842 14.7736 95.0551 15.4228 95.7043 16.2304V7.93311H99.2987V31.0515H95.7043V28.4547C95.1184 29.2939 94.3108 29.9748 93.2816 30.5132C92.2524 31.0515 91.0648 31.3207 89.7347 31.3207C88.2304 31.3207 86.8686 30.9407 85.6177 30.1806C84.3826 29.4206 83.4008 28.3597 82.6725 26.9979C81.9599 25.6361 81.5957 24.0843 81.5957 22.3584C81.6115 20.6324 81.9757 19.1123 82.6883 17.7664ZM94.9759 19.334C94.485 18.4631 93.8516 17.798 93.0599 17.3388C92.2682 16.8796 91.4131 16.6579 90.4947 16.6579C89.5763 16.6579 88.7213 16.8796 87.9295 17.323C87.1378 17.7664 86.5044 18.4314 86.0135 19.2865C85.5227 20.1574 85.2852 21.1708 85.2852 22.3584C85.2852 23.546 85.5227 24.591 86.0135 25.4778C86.5044 26.3803 87.1536 27.0612 87.9454 27.5204C88.7529 27.9955 89.5922 28.2172 90.4947 28.2172C91.4131 28.2172 92.2682 27.9955 93.0599 27.5363C93.8516 27.0771 94.485 26.412 94.9759 25.5253C95.4668 24.6385 95.7043 23.6093 95.7043 22.4217C95.7043 21.25 95.4668 20.2049 94.9759 19.334Z" fill="#99A0AE"/>
<path d="M107.058 30.2282C105.743 29.484 104.714 28.4389 103.97 27.1088C103.226 25.7629 102.846 24.2111 102.846 22.4377C102.846 20.68 103.226 19.1441 104.002 17.7823C104.778 16.4205 105.823 15.3913 107.153 14.6629C108.483 13.9345 109.971 13.5703 111.618 13.5703C113.265 13.5703 114.753 13.9345 116.083 14.6629C117.413 15.3913 118.474 16.4364 119.234 17.7823C120.01 19.1441 120.39 20.6959 120.39 22.4377C120.39 24.1795 119.994 25.7471 119.203 27.093C118.411 28.4548 117.334 29.4999 115.973 30.2282C114.611 30.9725 113.106 31.3367 111.46 31.3367C109.829 31.3367 108.356 30.9725 107.058 30.2282ZM114.041 27.5839C114.848 27.1405 115.497 26.4913 115.988 25.6204C116.495 24.7495 116.733 23.6886 116.733 22.4377C116.733 21.1867 116.495 20.1258 116.02 19.2707C115.545 18.3998 114.912 17.7506 114.12 17.3231C113.328 16.8797 112.473 16.6739 111.555 16.6739C110.636 16.6739 109.797 16.8956 109.005 17.3231C108.229 17.7665 107.612 18.4157 107.153 19.2707C106.693 20.1416 106.472 21.1867 106.472 22.4377C106.472 24.2903 106.947 25.7312 107.897 26.7288C108.847 27.7422 110.035 28.2489 111.476 28.2489C112.378 28.2489 113.233 28.0272 114.041 27.5839Z" fill="#99A0AE"/>
</g>
<defs>
<clipPath id="clip0_162_21639">
<rect width="120.39" height="37.9396" fill="white"/>
</clipPath>
</defs>
</svg>
