<svg width="130" height="32" viewBox="0 0 130 32" fill="none" xmlns="http://www.w3.org/2000/svg">
<path d="M27.3622 0H4.30816C1.92883 0 0 1.92883 0 4.30816V27.3622C0 29.7416 1.92883 31.6704 4.30816 31.6704H27.3622C29.7416 31.6704 31.6704 29.7416 31.6704 27.3622V4.30816C31.6704 1.92883 29.7416 0 27.3622 0Z" fill="#99A0AE"/>
<path d="M26.1691 10.5414C27.1985 11.6052 27.7132 13.0841 27.7132 14.9783V23.2497H23.4462V15.565C23.471 15.1812 23.4196 14.7962 23.2951 14.4323C23.1705 14.0683 22.9752 13.7326 22.7205 13.4444C22.1693 12.9636 21.4626 12.6987 20.7311 12.6987C19.9997 12.6987 19.293 12.9636 18.7417 13.4444C18.487 13.7326 18.2917 14.0683 18.1672 14.4323C18.0426 14.7962 17.9912 15.1812 18.016 15.565V23.2497H13.6667V15.565C13.6914 15.1812 13.64 14.7962 13.5155 14.4323C13.3909 14.0683 13.1957 13.7326 12.9409 13.4444C12.3897 12.9636 11.683 12.6987 10.9515 12.6987C10.2201 12.6987 9.5134 12.9636 8.96217 13.4444C8.70742 13.7326 8.51215 14.0683 8.3876 14.4323C8.26305 14.7962 8.21167 15.1812 8.23642 15.565V23.2497H3.91797V9.09506H8.25187V10.8708C8.70213 10.2637 9.2941 9.77598 9.97616 9.45021C10.7284 9.09444 11.553 8.91824 12.385 8.9355C13.3799 8.91756 14.363 9.15315 15.2417 9.62007C16.0692 10.0685 16.75 10.7457 17.2028 11.5708C17.7059 10.7826 18.3953 10.1303 19.2101 9.67154C20.048 9.18074 21.0032 8.92637 21.9742 8.9355C22.7464 8.89883 23.5178 9.02259 24.2399 9.29899C24.9619 9.57539 25.6187 9.99843 26.1691 10.5414Z" fill="white"/>
<path d="M35.0933 12.3169C35.5889 11.2775 36.3665 10.3983 37.3375 9.77937C38.2882 9.18777 39.3884 8.88058 40.5081 8.89406C41.4202 8.87277 42.323 9.08165 43.1331 9.50142C43.8445 9.86935 44.445 10.4201 44.8729 11.097V9.0948H49.2068V23.2494H44.8729V21.2421C44.4298 21.9143 43.822 22.4618 43.1074 22.8325C42.2973 23.2523 41.3945 23.4612 40.4824 23.4399C39.3689 23.4508 38.2763 23.1379 37.3375 22.5391C36.3639 21.9075 35.5865 21.016 35.0933 19.9656C34.5503 18.7601 34.2695 17.4531 34.2695 16.1309C34.2695 14.8088 34.5503 13.5018 35.0933 12.2963V12.3169ZM43.9721 13.6088C43.6875 13.3142 43.3464 13.0798 42.9692 12.9198C42.5921 12.7597 42.1866 12.6772 41.7769 12.6772C41.3672 12.6772 40.9616 12.7597 40.5845 12.9198C40.2073 13.0798 39.8663 13.3142 39.5816 13.6088C39.2715 13.9534 39.0327 14.3559 38.879 14.7932C38.7253 15.2305 38.6597 15.6939 38.686 16.1567C38.6361 17.0987 38.9577 18.0227 39.5816 18.7303C39.864 19.0289 40.2043 19.2667 40.5818 19.4293C40.9592 19.5918 41.3659 19.6757 41.7769 19.6757C42.1878 19.6757 42.5945 19.5918 42.972 19.4293C43.3494 19.2667 43.6898 19.0289 43.9721 18.7303C44.5569 17.9999 44.8754 17.0922 44.8754 16.1567C44.8754 15.2211 44.5569 14.3134 43.9721 13.5831V13.6088Z" fill="#99A0AE"/>
<path d="M60.3578 9.50188C61.0676 9.86994 61.6664 10.4208 62.0923 11.0975V9.09526H66.4314V23.2242C66.4493 24.4471 66.1833 25.6576 65.6542 26.7603C65.1383 27.8178 64.3171 28.6963 63.2968 29.2824C62.0914 29.9454 60.7288 30.2691 59.3541 30.2191C57.2609 30.2191 55.5623 29.725 54.2584 28.7368C53.6222 28.2635 53.094 27.6603 52.7089 26.9672C52.3237 26.2741 52.0905 25.507 52.0245 24.7168H56.3121C56.3787 24.984 56.4982 25.235 56.6635 25.4552C56.8288 25.6753 57.0366 25.8601 57.2746 25.9985C57.8446 26.3276 58.4956 26.49 59.1533 26.4669C59.5435 26.4862 59.9337 26.4278 60.3013 26.2953C60.6688 26.1628 61.0064 25.9587 61.2945 25.6948C61.823 25.1801 62.0889 24.3565 62.0923 23.2242V21.2168C61.6544 21.8929 61.0523 22.4472 60.3423 22.8278C59.5411 23.258 58.6418 23.4726 57.7327 23.4506C56.6108 23.4645 55.5091 23.1515 54.5621 22.5499C53.587 21.92 52.8093 21.028 52.3179 19.9763C51.7749 18.7709 51.4941 17.4638 51.4941 16.1417C51.4941 14.8196 51.7749 13.5125 52.3179 12.3071C52.8118 11.2666 53.5898 10.3869 54.5621 9.76953C55.5125 9.17714 56.6129 8.86988 57.7327 8.88422C58.6456 8.86743 59.5481 9.07979 60.3578 9.50188ZM61.1916 13.6196C60.9074 13.3251 60.5667 13.0908 60.19 12.9308C59.8133 12.7708 59.4082 12.6884 58.9989 12.6884C58.5896 12.6884 58.1845 12.7708 57.8078 12.9308C57.4311 13.0908 57.0904 13.3251 56.8062 13.6196C56.4945 13.9632 56.2543 14.3655 56.0996 14.8029C55.945 15.2404 55.879 15.7042 55.9055 16.1674C55.857 17.1102 56.1804 18.0343 56.8062 18.741C57.0881 19.0395 57.428 19.2772 57.8051 19.4397C58.1821 19.6022 58.5883 19.6861 58.9989 19.6861C59.4095 19.6861 59.8157 19.6022 60.1927 19.4397C60.5698 19.2772 60.9097 19.0395 61.1916 18.741C61.7763 18.0107 62.0949 17.103 62.0949 16.1674C62.0949 15.2319 61.7763 14.3242 61.1916 13.5939V13.6196Z" fill="#99A0AE"/>
<path d="M77.4584 19.5698V23.25H75.2502C73.9243 23.33 72.6156 22.9176 71.5752 22.0919C70.6967 21.3232 70.2575 20.069 70.2575 18.3293V12.6983H68.5332V9.09532H70.2832V5.64673H74.6171V9.09532H77.4584V12.6983H74.6171V18.3602C74.6019 18.5248 74.6211 18.6908 74.6734 18.8476C74.7256 19.0044 74.8099 19.1487 74.9208 19.2712C75.218 19.4875 75.5846 19.5864 75.9502 19.5492L77.4584 19.5698Z" fill="#99A0AE"/>
<path d="M79.8286 12.3169C80.3269 11.2778 81.1061 10.3988 82.0779 9.77937C83.0264 9.18712 84.1252 8.87983 85.2434 8.89406C86.1555 8.87277 87.0583 9.08165 87.8684 9.50142C88.5797 9.86935 89.1802 10.4201 89.6081 11.097V9.0948H93.9626V23.2494H89.6287V21.2421C89.1885 21.9192 88.5802 22.4708 87.8633 22.8428C87.0532 23.2626 86.1504 23.4715 85.2382 23.4502C84.1263 23.4619 83.0351 23.1488 82.0985 22.5494C81.1234 21.9181 80.3442 21.0267 79.8492 19.9759C79.3062 18.7704 79.0254 17.4634 79.0254 16.1412C79.0254 14.8191 79.3062 13.5121 79.8492 12.3066L79.8286 12.3169ZM88.7074 13.6088C88.4232 13.3143 88.0826 13.0801 87.7058 12.9201C87.3291 12.7601 86.924 12.6776 86.5147 12.6776C86.1054 12.6776 85.7003 12.7601 85.3236 12.9201C84.9469 13.0801 84.6062 13.3143 84.322 13.6088C84.0103 13.9525 83.7701 14.3547 83.6154 14.7922C83.4608 15.2296 83.3948 15.6935 83.4213 16.1567C83.3728 17.0994 83.6962 18.0235 84.322 18.7303C84.5988 19.0358 84.9375 19.2788 85.3156 19.443C85.6937 19.6072 86.1025 19.6889 86.5147 19.6825C86.9254 19.6882 87.3327 19.6078 87.7103 19.4464C88.088 19.2851 88.4276 19.0464 88.7074 18.7457C89.2921 18.0154 89.6107 17.1077 89.6107 16.1721C89.6107 15.2366 89.2921 14.3289 88.7074 13.5985V13.6088Z" fill="#99A0AE"/>
<path d="M103.175 9.50158C103.979 9.08076 104.877 8.87173 105.785 8.89422C106.904 8.87987 108.005 9.18713 108.955 9.77953C109.926 10.3984 110.704 11.2777 111.199 12.3171C111.742 13.5225 112.023 14.8296 112.023 16.1517C112.023 17.4738 111.742 18.7809 111.199 19.9863C110.706 21.0368 109.929 21.9283 108.955 22.5599C108.012 23.155 106.916 23.4643 105.8 23.4503C104.896 23.4693 104.002 23.2604 103.201 22.843C102.488 22.4819 101.877 21.9474 101.425 21.2885V30.013H97.0859V9.11555H101.425V11.1178C101.859 10.4374 102.462 9.88069 103.175 9.50158ZM106.711 13.6193C106.426 13.3188 106.082 13.0811 105.7 12.9216C105.318 12.762 104.907 12.6841 104.493 12.6928C104.082 12.6861 103.674 12.7661 103.296 12.9275C102.919 13.0889 102.579 13.3281 102.3 13.6296C101.715 14.3599 101.397 15.2676 101.397 16.2032C101.397 17.1387 101.715 18.0464 102.3 18.7767C102.579 19.0782 102.919 19.3174 103.296 19.4788C103.674 19.6402 104.082 19.7202 104.493 19.7135C104.907 19.7178 105.317 19.6353 105.698 19.4713C106.078 19.3073 106.42 19.0654 106.701 18.7613C107.014 18.4132 107.256 18.0067 107.412 17.5651C107.569 17.1235 107.636 16.6555 107.612 16.1877C107.644 15.7177 107.581 15.2461 107.426 14.8012C107.271 14.3563 107.028 13.9473 106.711 13.5987V13.6193Z" fill="#99A0AE"/>
<path d="M120.392 9.50152C121.198 9.08112 122.098 8.87214 123.007 8.89415C124.127 8.88067 125.227 9.18787 126.178 9.77946C127.147 10.3996 127.925 11.2785 128.422 12.317C128.965 13.5225 129.246 14.8295 129.246 16.1516C129.246 17.4737 128.965 18.7808 128.422 19.9863C127.927 21.0357 127.15 21.9268 126.178 22.5598C125.23 23.1609 124.129 23.4738 123.007 23.4606C122.103 23.4802 121.209 23.2713 120.408 22.8532C119.706 22.4852 119.108 21.9472 118.668 21.2885V30.0129H114.334V9.11548H118.668V11.1177C119.097 10.4418 119.69 9.88568 120.392 9.50152ZM123.933 13.6192C123.647 13.3188 123.302 13.0813 122.919 12.9218C122.536 12.7622 122.125 12.6843 121.71 12.6927C121.299 12.687 120.892 12.7674 120.514 12.9288C120.137 13.0901 119.797 13.3288 119.517 13.6295C118.932 14.3599 118.614 15.2675 118.614 16.2031C118.614 17.1387 118.932 18.0463 119.517 18.7767C119.801 19.0749 120.142 19.3124 120.52 19.4746C120.899 19.6369 121.306 19.7205 121.718 19.7205C122.129 19.7205 122.536 19.6369 122.915 19.4746C123.293 19.3124 123.634 19.0749 123.918 18.7767C124.231 18.4285 124.473 18.0221 124.629 17.5805C124.786 17.1389 124.854 16.6709 124.829 16.2031C124.863 15.731 124.801 15.2569 124.647 14.8094C124.493 14.3618 124.251 13.95 123.933 13.5986V13.6192Z" fill="#99A0AE"/>
</svg>
