<svg width="131" height="37" viewBox="0 0 131 37" fill="none" xmlns="http://www.w3.org/2000/svg">
<path d="M7.73694 7.81075C9.00126 6.54642 9.00126 4.49655 7.73693 3.23222C6.47261 1.96789 4.42273 1.96789 3.15841 3.23222C1.89408 4.49655 1.89408 6.54642 3.1584 7.81075C4.42273 9.07507 6.47261 9.07508 7.73694 7.81075Z" fill="#99A0AE"/>
<path d="M34.5638 8.71654C32.6187 8.72945 30.7207 9.31615 29.1076 10.4031C27.4945 11.49 26.2381 13.0289 25.4959 14.8268C24.7536 16.6247 24.5584 18.6017 24.9349 20.5101C25.3113 22.4184 26.2426 24.1732 27.6121 25.5546C29.4802 27.3786 31.9876 28.3997 34.5986 28.3997C37.2095 28.3997 39.7169 27.3786 41.585 25.5546C43.4317 23.6943 44.468 21.1794 44.468 18.5582C44.468 15.937 43.4317 13.4221 41.585 11.5618C40.6695 10.6353 39.5747 9.90511 38.3675 9.41591C37.1603 8.92672 35.866 8.68875 34.5638 8.71654ZM39.281 23.3102C38.1768 24.4649 36.705 25.1992 35.1183 25.3868C33.5317 25.5745 31.9292 25.2038 30.586 24.3386C29.2429 23.4733 28.2429 22.1673 27.7579 20.645C27.2729 19.1227 27.333 17.479 27.928 15.9962C28.523 14.5134 29.6157 13.284 31.0184 12.5191C32.4212 11.7543 34.0465 11.5018 35.6152 11.8049C37.1839 12.108 38.5982 12.9478 39.615 14.1801C40.6319 15.4125 41.188 16.9604 41.1878 18.5582C41.2132 19.4387 41.0571 20.3151 40.729 21.1326C40.401 21.9502 39.9081 22.6914 39.281 23.3102Z" fill="#99A0AE"/>
<path d="M12.6471 8.71704C10.7005 8.72646 8.80006 9.31031 7.18395 10.3954C5.56785 11.4805 4.30805 13.0185 3.56249 14.8167C2.81692 16.6148 2.61879 18.5931 2.99292 20.5034C3.36705 22.4137 4.29679 24.171 5.66559 25.5551C6.57474 26.479 7.66277 27.2079 8.86316 27.6971C10.0635 28.1863 11.3511 28.4256 12.6471 28.4003C13.9451 28.4241 15.2345 28.1842 16.4371 27.6952C17.6397 27.2061 18.7305 26.4781 19.6435 25.5551L19.7478 25.4458L17.7616 36.5239H22.5285V18.5587C22.5572 17.2569 22.3162 15.9632 21.8205 14.7591C21.3249 13.555 20.5853 12.4666 19.6485 11.5623C18.7349 10.6387 17.6433 9.91026 16.4398 9.42118C15.2362 8.93209 13.9459 8.69254 12.6471 8.71704ZM17.3594 23.3107C16.2551 24.4654 14.7833 25.1997 13.1967 25.3873C11.61 25.575 10.0075 25.2043 8.66435 24.3391C7.32122 23.4738 6.32127 22.1678 5.83623 20.6455C5.35119 19.1232 5.41132 17.4795 6.00631 15.9967C6.60129 14.5139 7.69399 13.2845 9.09676 12.5196C10.4995 11.7548 12.1248 11.5023 13.6935 11.8054C15.2623 12.1085 16.6765 12.9483 17.6934 14.1806C18.7103 15.413 19.2663 16.9609 19.2661 18.5587C19.2922 19.4393 19.1363 20.3158 18.8082 21.1335C18.4801 21.9511 17.9869 22.6923 17.3594 23.3107Z" fill="#99A0AE"/>
<path d="M56.4869 8.71673C54.5404 8.72615 52.6399 9.31001 51.0238 10.3951C49.4077 11.4802 48.1479 13.0182 47.4023 14.8164C46.6568 16.6145 46.4586 18.5928 46.8328 20.5031C47.2069 22.4134 48.1366 24.1707 49.5054 25.5548C50.6516 26.7165 52.0674 27.5766 53.6267 28.0583C55.1859 28.5401 56.8401 28.6286 58.4419 28.3159C60.0436 28.0031 61.5431 27.299 62.8066 26.2661C64.0702 25.2333 65.0585 23.9038 65.6836 22.3963C66.3087 20.8888 66.551 19.25 66.389 17.6261C66.2271 16.0022 65.6658 14.4436 64.7553 13.0892C63.8447 11.7349 62.6132 10.6268 61.1706 9.86391C59.7279 9.10099 58.1189 8.70689 56.4869 8.71673ZM61.1893 23.3104C60.0857 24.4601 58.6163 25.1898 57.0334 25.3744C55.4504 25.5589 53.8526 25.1868 52.5141 24.3218C51.1756 23.4568 50.1799 22.1529 49.6978 20.6339C49.2157 19.1149 49.2774 17.4755 49.8722 15.997C50.467 14.5185 51.5579 13.2931 52.9576 12.5311C54.3573 11.7691 55.9785 11.518 57.5431 11.821C59.1077 12.1239 60.5181 12.962 61.5323 14.1913C62.5464 15.4207 63.101 16.9647 63.101 18.5584C63.1267 19.4394 62.9702 20.3162 62.6412 21.1339C62.3122 21.9516 61.8179 22.6926 61.1893 23.3104Z" fill="#99A0AE"/>
<path d="M78.6297 8.71663C75.9153 8.71663 73.8943 9.77759 72.5669 11.8995V1.96851H69.3145V27.8984H72.5669V17.9674C72.5669 15.8719 73.0634 14.3194 74.0565 13.3097C74.5713 12.7997 75.1859 12.4015 75.8618 12.1401C76.5376 11.8786 77.2602 11.7595 77.9842 11.7903C78.6077 11.7563 79.2315 11.8503 79.8172 12.0663C80.403 12.2824 80.9385 12.6159 81.3906 13.0466C82.2148 13.8808 82.622 15.0625 82.622 16.582V27.8835H85.8794V16.4231C85.8794 14.0562 85.2173 12.1792 83.8932 10.7922C83.2104 10.0966 82.389 9.5523 81.4822 9.19472C80.5754 8.83714 79.6036 8.67425 78.6297 8.71663Z" fill="#99A0AE"/>
<path d="M98.3014 8.71669C96.3542 8.72476 94.4528 9.30795 92.8359 10.393C91.2191 11.4781 89.9588 13.0167 89.2135 14.8156C88.4682 16.6145 88.2709 18.5935 88.6465 20.5042C89.0222 22.4148 89.954 24.1719 91.3248 25.5547C92.4713 26.7139 93.8866 27.5716 95.4448 28.0514C97.0029 28.5312 98.6556 28.6182 100.256 28.3046C101.855 27.9911 103.353 27.2867 104.615 26.2543C105.877 25.2218 106.863 23.8933 107.488 22.3871C108.112 20.8809 108.353 19.2438 108.192 17.6215C108.03 15.9992 107.469 14.442 106.56 13.0888C105.651 11.7356 104.421 10.6283 102.98 9.86545C101.539 9.10263 99.9317 8.70799 98.3014 8.71669ZM103.019 23.3103C101.914 24.4651 100.443 25.1993 98.8559 25.387C97.2692 25.5746 95.6667 25.204 94.3236 24.3387C92.9805 23.4734 91.9805 22.1675 91.4955 20.6452C91.0104 19.1228 91.0706 17.4791 91.6656 15.9963C92.2605 14.5135 93.3532 13.2841 94.756 12.5193C96.1588 11.7545 97.7841 11.5019 99.3528 11.805C100.922 12.1081 102.336 12.948 103.353 14.1803C104.37 15.4126 104.926 16.9606 104.925 18.5583C104.951 19.4389 104.795 20.3154 104.467 21.133C104.139 21.9506 103.646 22.6918 103.019 23.3103Z" fill="#99A0AE"/>
<path d="M127.231 11.5619C125.363 9.7379 122.856 8.7168 120.245 8.7168C117.634 8.7168 115.126 9.7379 113.258 11.5619C111.868 12.9373 110.919 14.6958 110.532 16.6129C110.146 18.53 110.339 20.5189 111.087 22.3256C111.836 24.1324 113.106 25.6752 114.735 26.757C116.364 27.8389 118.279 28.4109 120.235 28.4C121.533 28.4238 122.822 28.1839 124.025 27.6948C125.227 27.2058 126.318 26.4777 127.231 25.5547C129.078 23.6944 130.114 21.1795 130.114 18.5583C130.114 15.9371 129.078 13.4222 127.231 11.5619ZM124.947 23.3103C123.843 24.46 122.374 25.1898 120.791 25.3743C119.208 25.5589 117.61 25.1867 116.272 24.3217C114.933 23.4568 113.937 22.1529 113.455 20.6339C112.973 19.1149 113.035 17.4754 113.63 15.9969C114.225 14.5184 115.315 13.293 116.715 12.531C118.115 11.7691 119.736 11.518 121.301 11.8209C122.865 12.1239 124.276 12.9619 125.29 14.1913C126.304 15.4207 126.859 16.9647 126.859 18.5583C126.883 19.4401 126.725 20.3173 126.394 21.1351C126.064 21.9528 125.567 22.6934 124.937 23.3103H124.947Z" fill="#99A0AE"/>
</svg>
