<svg width="130" height="36" viewBox="0 0 130 36" fill="none" xmlns="http://www.w3.org/2000/svg">
<path d="M27.0473 11.5828H16.053C15.8508 11.5828 15.7225 11.3665 15.8196 11.1893L20.8698 1.96734C21.3549 1.08151 20.7132 0 19.7025 0H8.80967C8.32342 0 7.8759 0.265036 7.64246 0.691297L0.165163 14.3456C-0.319946 15.2313 0.321723 16.3128 1.33237 16.3128H12.5217C12.7243 16.3128 12.8527 16.5301 12.7546 16.7073L7.71209 25.8192C7.19602 26.7519 7.87114 27.8957 8.93786 27.8957H19.5686C20.0783 27.8957 20.5477 27.6191 20.7943 27.1734L28.2731 13.6592C28.7892 12.7266 28.114 11.5828 27.0473 11.5828Z" fill="#99A0AE"/>
<path d="M31.8867 23.1087L34.8092 22.8546C35.1903 24.5366 36.6198 25.5839 39.0022 25.5839C41.2892 25.5839 42.7187 24.5683 42.7187 23.1404C42.7187 22.0931 42.0199 21.3315 40.1457 21.1093L37.128 20.7284C34.3644 20.4111 32.2042 19.2685 32.2042 16.571C32.2042 13.7146 34.7774 11.4932 38.4622 11.4932C42.2739 11.4932 44.5294 13.6195 44.8152 16.6027L42.1152 16.7932C41.861 15.0476 40.6222 13.9052 38.4622 13.9052C36.3657 13.9052 35.0632 15.0476 35.0632 16.4758C35.0632 17.5548 35.8257 18.2212 37.4775 18.4117L40.527 18.7924C43.5447 19.1733 45.6412 20.316 45.6412 23.0452C45.6412 25.8059 43.227 27.996 39.0022 27.996C34.9362 27.9961 32.4267 25.9011 31.8867 23.1087Z" fill="#99A0AE"/>
<path d="M48.0547 11.8114H51.1042V15.3024C52.216 12.7952 54.2807 11.6208 56.6312 11.6208C59.9667 11.6208 62.9844 14.128 62.9844 19.777C62.9844 25.4895 59.9667 27.8695 56.6312 27.8695C54.2807 27.8695 52.216 26.7588 51.1042 24.2519V35.2961H48.0547V11.8114ZM59.8714 19.777C59.8714 15.9688 57.9654 14.2234 55.5512 14.2234C53.1371 14.2234 51.1359 16.2545 51.1359 19.777C51.1359 23.268 53.1372 25.2674 55.5512 25.2674C57.9655 25.2674 59.8714 23.5535 59.8714 19.777Z" fill="#99A0AE"/>
<path d="M65.3027 23.6796C65.3027 18.4117 71.243 18.7607 76.2937 19.0781V17.301C76.2937 15.4285 75.1502 14.0321 72.9266 14.0321C70.7031 14.0321 69.1782 15.365 68.9242 17.5865L66.0017 17.4279C66.3509 13.5877 69.3052 11.4932 72.9266 11.4932C76.7382 11.4932 79.3114 13.6195 79.3114 17.6817V27.6784H77.0244L76.389 24.3462C75.563 26.6311 73.657 27.996 70.7032 27.996C67.3675 27.996 65.3027 26.2505 65.3027 23.6796ZM76.2937 21.2361V20.7601C72.4818 20.6332 68.3205 20.6966 68.3205 23.3624C68.3205 24.7269 69.337 25.6155 71.3383 25.6155C74.356 25.6155 76.2937 23.7114 76.2937 21.2361Z" fill="#99A0AE"/>
<path d="M81.948 35.2312V32.5335C82.647 32.5652 83.346 32.597 83.6953 32.597C85.4425 32.597 86.2681 31.8669 87.1258 29.8041L87.8883 27.9316L81.1855 11.8101H84.6165L89.3493 24.7263L93.765 11.8101H97.1637L89.9848 30.1534C88.4602 34.1522 86.8718 35.3264 84.2351 35.3264C83.5683 35.3263 82.8693 35.2946 81.948 35.2312Z" fill="#99A0AE"/>
<path d="M97.957 19.7762C97.957 14.8256 100.848 11.4932 105.358 11.4932C109.774 11.4932 112.601 14.7621 112.601 19.7127C112.601 20.0302 112.601 20.3476 112.569 20.6014H100.911C101.07 23.6479 102.817 25.5521 105.517 25.5521C107.709 25.5521 109.234 24.3779 109.742 22.3787L112.474 22.6325C111.648 26.06 109.075 27.9959 105.517 27.9959C101.102 27.996 97.957 24.8538 97.957 19.7762ZM109.71 18.4434C109.456 15.4919 107.677 13.9369 105.358 13.9369C103.039 13.9369 101.197 15.4919 100.975 18.4434H109.71Z" fill="#99A0AE"/>
<path d="M114.602 19.7762C114.602 14.8256 117.492 11.4932 122.003 11.4932C126.418 11.4932 129.245 14.7621 129.245 19.7127C129.245 20.0302 129.245 20.3476 129.214 20.6014H117.556C117.715 23.6479 119.462 25.5521 122.162 25.5521C124.354 25.5521 125.878 24.3779 126.387 22.3787L129.118 22.6325C128.292 26.06 125.72 27.9959 122.162 27.9959C117.746 27.996 114.602 24.8538 114.602 19.7762ZM126.355 18.4434C126.101 15.4919 124.322 13.9369 122.003 13.9369C119.684 13.9369 117.842 15.4919 117.619 18.4434H126.355Z" fill="#99A0AE"/>
</svg>
