<svg width="149" height="59" viewBox="0 0 149 59" fill="none" xmlns="http://www.w3.org/2000/svg">
<path d="M41.8867 32.4346L29.432 28.2798L32.9025 14.6667L34.7306 7.49601L35.6447 3.90821L36.0993 2.11432L36.3241 1.21492C36.3926 0.877652 36.2068 0.559932 35.9575 0.374188C35.6203 0.105348 35.1168 0.0466923 34.716 0.256876C34.4422 0.427956 34.193 0.613701 33.9339 0.794557L2.17166 19.1734C-1.14241 21.1335 -0.55585 25.4741 3.19813 26.7254L15.5306 30.846L11.5908 46.8151L9.52321 55.1931L9.00508 57.2901C8.96598 57.466 8.91221 57.6322 8.88288 57.818C8.86333 58.0086 8.92199 58.1944 9.02952 58.341C9.10284 58.4485 9.2006 58.5414 9.30814 58.6049C9.2006 58.5365 9.10773 58.4436 9.03441 58.3312C8.94154 58.1797 8.91221 57.9939 8.94642 57.8278C8.99042 57.6616 9.05885 57.4905 9.11751 57.3194L9.80671 55.2811L12.5684 47.1181L17.8181 31.6085L34.2418 37.088C34.5791 37.2004 34.672 37.5768 34.4129 37.7967L10.6181 58.5267C10.5692 58.5658 10.5204 58.6001 10.4666 58.6343C10.3102 58.7272 10.1342 58.7809 9.95335 58.7858C9.78227 58.7956 9.60631 58.7565 9.445 58.688C9.60631 58.7614 9.77739 58.8005 9.95335 58.7907C10.1342 58.7809 10.3151 58.732 10.4715 58.6441C10.5057 58.6245 10.5399 58.6001 10.5692 58.5756L42.8985 40.0061C46.2223 38.0362 45.6407 33.6908 41.8867 32.4346ZM10.8674 22.0769C10.5301 21.9645 10.4373 21.593 10.6963 21.373L33.5135 1.36645L33.7921 1.14161C34.1196 0.887429 34.452 0.603925 34.7795 0.369301C35.1168 0.159117 35.586 0.178669 35.9233 0.408405C36.1775 0.579485 36.2997 0.90698 36.2068 1.18071L35.9086 2.05077L35.3074 3.80068L34.1001 7.30049L31.6854 14.3001L27.1396 27.5075L10.8674 22.0769Z" fill="#99A0AE"/>
<path d="M63.8734 29.184C62.5928 28.8418 61.5516 28.397 60.75 27.8544L62.6661 24.2178C63.5362 24.775 64.46 25.1954 65.4425 25.4838C66.425 25.7722 67.4075 25.9139 68.3948 25.9139C69.3284 25.9139 70.0568 25.777 70.57 25.5082C71.0881 25.2394 71.3423 24.863 71.3423 24.3889C71.3423 23.9783 71.1077 23.6605 70.6433 23.4308C70.1741 23.2011 69.4506 22.9567 68.4682 22.6927C67.3537 22.3994 66.4299 22.1013 65.6918 21.7933C64.9537 21.4903 64.3182 21.0259 63.7855 20.4051C63.2527 19.7844 62.9887 18.9632 62.9887 17.9465C62.9887 16.7147 63.326 15.6393 63.9956 14.7155C64.6653 13.7917 65.6282 13.0731 66.8747 12.5648C68.1211 12.0564 69.5777 11.8022 71.2494 11.8022C72.4812 11.8022 73.625 11.9293 74.6906 12.1835C75.7562 12.4377 76.6751 12.8043 77.4425 13.2784L75.6731 16.8907C74.9985 16.4654 74.2604 16.1428 73.449 15.9179C72.6376 15.698 71.8067 15.5856 70.9513 15.5856C69.9834 15.5856 69.2258 15.742 68.6783 16.0548C68.1309 16.3676 67.8523 16.7685 67.8523 17.2573C67.8523 17.6825 68.0918 18.01 68.5659 18.2397C69.0401 18.4695 69.7781 18.7139 70.7802 18.9778C71.8946 19.2564 72.8185 19.5448 73.5468 19.8381C74.2751 20.1314 74.9008 20.586 75.4287 21.1921C75.9517 21.7982 76.2156 22.595 76.2156 23.5774C76.2156 24.7897 75.8735 25.8601 75.194 26.784C74.5146 27.7078 73.5468 28.4263 72.2906 28.9347C71.0344 29.443 69.5826 29.6972 67.9256 29.6972C66.5032 29.7021 65.1492 29.5261 63.8734 29.184Z" fill="#99A0AE"/>
<path d="M81.945 28.9492C80.8647 28.4507 80.0337 27.7321 79.4618 26.7985C78.89 25.8649 78.6016 24.7651 78.6016 23.504C78.6016 22.981 78.6651 22.3749 78.7971 21.6857L80.7132 12.1443H85.5816L83.69 21.6123C83.5922 22.106 83.5433 22.5557 83.5433 22.9663C83.5433 24.77 84.4916 25.6694 86.393 25.6694C87.4244 25.6694 88.2407 25.3517 88.837 24.7211C89.4334 24.0906 89.8831 23.0543 90.1764 21.6123L92.068 12.1443H96.8631L94.9226 21.9056C93.8717 27.1016 90.8313 29.702 85.8016 29.702C84.3107 29.702 83.0252 29.4527 81.945 28.9492Z" fill="#99A0AE"/>
<path d="M112.627 13.596C113.839 14.5638 114.446 15.9227 114.446 17.6775C114.446 19.1195 114.098 20.3806 113.4 21.4657C112.701 22.546 111.708 23.3818 110.423 23.9733C109.137 24.5647 107.641 24.858 105.936 24.858H102.494L101.615 29.3549H96.7461L100.187 12.1443H107.465C109.694 12.1443 111.415 12.6282 112.627 13.596ZM108.658 20.2584C109.24 19.75 109.533 19.0266 109.533 18.093C109.533 17.3891 109.298 16.8612 108.834 16.5093C108.365 16.1573 107.7 15.9814 106.83 15.9814H104.274L103.267 21.0209H106.17C107.246 21.0209 108.076 20.7667 108.658 20.2584Z" fill="#99A0AE"/>
<path d="M122.094 15.908L121.527 18.8115H129.172L128.458 22.4482H120.789L120.173 25.5961H129.196L128.409 29.3598H114.615L118.056 12.1492H131.533L130.77 15.9129H122.094V15.908Z" fill="#99A0AE"/>
<path d="M147.614 21.6954C146.778 22.8343 145.605 23.6653 144.1 24.1932L147.028 29.3549H141.939L139.383 24.7798H136.924L136.015 29.3549H131.146L134.588 12.1443H141.939C144.134 12.1443 145.84 12.6282 147.052 13.596C148.264 14.5638 148.87 15.908 148.87 17.6286C148.87 19.2026 148.455 20.5565 147.614 21.6954ZM143.239 16.5093C142.765 16.1573 142.1 15.9814 141.245 15.9814H138.689L137.657 21.0209H140.561C141.641 21.0209 142.477 20.7667 143.068 20.2584C143.66 19.75 143.953 19.0266 143.953 18.093C143.953 17.3891 143.714 16.8612 143.239 16.5093Z" fill="#99A0AE"/>
<path d="M71.1797 36.9022C71.8396 37.2492 72.3675 37.7527 72.7488 38.4077C73.13 39.0627 73.3255 39.8398 73.3255 40.7295C73.3255 41.8293 73.0811 42.8264 72.5923 43.7111C72.1035 44.5959 71.4339 45.29 70.5883 45.7934C69.7377 46.2969 68.7944 46.5462 67.7581 46.5462C66.976 46.5462 66.2966 46.4093 65.7149 46.1356C65.1333 45.8619 64.6787 45.4659 64.3609 44.9478L63.3589 50.0167H61.0371L63.7304 36.4965H65.93L65.7247 37.5376C66.5899 36.7702 67.6701 36.384 68.9557 36.384C69.7769 36.384 70.5149 36.5551 71.1797 36.9022ZM69.3223 44.0826C69.8355 43.7649 70.2412 43.3299 70.5394 42.7629C70.8375 42.2008 70.9842 41.5604 70.9842 40.8419C70.9842 40.0598 70.7544 39.4537 70.295 39.0138C69.8355 38.5739 69.1952 38.3539 68.3642 38.3539C67.7092 38.3539 67.1227 38.5103 66.6094 38.828C66.0962 39.1458 65.6905 39.5857 65.3923 40.1478C65.0941 40.7099 64.9475 41.3502 64.9475 42.0688C64.9475 42.8509 65.1772 43.457 65.6367 43.8969C66.0962 44.3368 66.7365 44.5568 67.5675 44.5568C68.2225 44.5568 68.809 44.4004 69.3223 44.0826Z" fill="#99A0AE"/>
<path d="M86.1558 36.4965L84.186 46.4142H81.9766L82.1819 45.3926C81.3167 46.16 80.2365 46.5462 78.9509 46.5462C78.1346 46.5462 77.3917 46.3751 76.7318 46.0281C76.067 45.681 75.544 45.1775 75.1627 44.5128C74.7766 43.848 74.5859 43.0708 74.5859 42.1812C74.5859 41.0814 74.8303 40.0842 75.3191 39.1995C75.8079 38.3148 76.4776 37.6256 77.3232 37.127C78.1688 36.6333 79.122 36.384 80.1729 36.384C81.7566 36.384 82.8858 36.9119 83.5554 37.9629L83.834 36.4965H86.1558ZM81.302 44.0826C81.8153 43.7649 82.221 43.3299 82.5192 42.7629C82.8173 42.2008 82.964 41.5604 82.964 40.8419C82.964 40.0598 82.7342 39.4537 82.2748 39.0138C81.8153 38.5739 81.175 38.3539 80.344 38.3539C79.689 38.3539 79.1024 38.5103 78.5892 38.828C78.076 39.1458 77.6703 39.5857 77.3721 40.1478C77.0739 40.7099 76.9273 41.3502 76.9273 42.0688C76.9273 42.8509 77.157 43.457 77.6165 43.8969C78.076 44.3368 78.7163 44.5568 79.5473 44.5568C80.2022 44.5568 80.7888 44.4004 81.302 44.0826Z" fill="#99A0AE"/>
<path d="M98.5076 36.4963L91.6742 47.2891C90.9948 48.3644 90.3447 49.1123 89.7336 49.5278C89.1226 49.9432 88.3748 50.1485 87.4949 50.1485C87.0013 50.1485 86.5125 50.0654 86.0285 49.909C85.5446 49.7477 85.1683 49.5375 84.8945 49.2785L86.0481 47.5872C86.5076 48.0076 87.0501 48.2178 87.6807 48.2178C88.0766 48.2178 88.4237 48.1151 88.7218 47.9098C89.02 47.7045 89.3231 47.3575 89.631 46.8589L89.9487 46.375L87.6074 36.4915H89.9292L91.6009 43.8479L96.1907 36.4915H98.5076V36.4963Z" fill="#99A0AE"/>
</svg>
