<svg width="128" height="42" viewBox="0 0 128 42" fill="none" xmlns="http://www.w3.org/2000/svg">
<path d="M70.035 16.0825H65.4303L65.515 16.5904C65.6673 17.7077 65.7351 18.7234 65.7351 19.6545C65.7351 23.582 64.804 25.5458 62.9249 25.5458C61.8583 25.5458 61.3335 25.0379 61.3335 24.0053C61.3335 23.7852 61.3674 23.5482 61.4182 23.2773L62.6879 16.0825H58.0663L57.1521 21.2289C56.8812 22.8372 56.5596 23.9545 56.1702 24.5978C55.7978 25.2411 55.2391 25.5627 54.4942 25.5627C53.4277 25.5627 52.9029 25.0549 52.9029 24.0222C52.9029 23.8021 52.9368 23.5651 52.9876 23.2943L54.2572 16.0994H49.6526V16.1164H47.6211V19.7053H49.0262L48.3998 23.2604C48.2475 24.0391 48.1798 24.7332 48.1798 25.3765C48.1798 26.5785 48.4506 27.4926 48.9923 28.1021C49.8049 29.0162 51.2947 29.4902 53.4616 29.4902C55.0698 29.4902 56.5257 28.8808 57.8123 27.6788C58.5403 28.8808 59.9792 29.4902 62.1461 29.4902C63.5851 29.4902 64.8717 29.1686 65.9721 28.5253C67.0894 27.882 67.9528 27.0525 68.5622 26.0029C69.1886 24.9702 69.6457 23.8698 69.9504 22.7187C70.2043 21.7537 70.3567 20.738 70.3905 19.7053H71.7279V16.1164H70.0181C70.035 16.0995 70.035 16.0825 70.035 16.0825Z" fill="#99A0AE"/>
<path d="M78.4991 8.17676C77.4156 8.17676 76.6199 8.44762 76.0951 8.97242C75.5873 9.51414 75.3164 10.3606 75.3164 11.5118C75.3164 12.8153 76.0613 13.4586 77.568 13.4586C78.6683 13.4586 79.4809 13.2047 79.9888 12.6799C80.4967 12.1551 80.7675 11.3255 80.7675 10.1913C80.7845 8.85391 80.0227 8.17676 78.4991 8.17676Z" fill="#99A0AE"/>
<path d="M77.856 24.8009C77.856 24.7162 77.8729 24.6146 77.8898 24.4961L79.4135 15.947H74.8088L73.1836 25.1225C73.1159 25.5627 73.082 26.0536 73.082 26.6292C73.082 27.2048 73.2513 27.7296 73.573 28.2374C74.0639 28.9992 75.1304 29.3717 76.7725 29.3717C77.856 29.3717 78.8209 29.0162 79.6674 28.3052L79.8028 25.241C79.4812 25.4272 79.1087 25.5119 78.6855 25.5119C78.1269 25.5288 77.856 25.2749 77.856 24.8009Z" fill="#99A0AE"/>
<path d="M94.09 24.8008C94.09 24.7162 94.1069 24.6146 94.1238 24.4961L94.8518 20.3146C94.9364 19.756 94.9872 19.1466 94.9872 18.5033C94.9872 17.86 94.8349 17.2674 94.5301 16.7596C94.0392 15.9639 92.9896 15.5576 91.3644 15.5576C89.7392 15.5576 88.4019 16.2178 87.3353 17.5383L87.6401 15.9301H83.357L81.0547 28.9823H85.6594L87.183 20.3316C87.6739 19.7729 88.2833 19.4851 89.0452 19.4851C89.79 19.4851 90.1625 19.8745 90.1625 20.6532C90.1625 20.8902 90.1286 21.1611 90.0778 21.4997L89.4345 25.1055C89.3668 25.5288 89.3329 25.9181 89.3329 26.2736C89.3329 28.339 90.5518 29.3716 93.0065 29.3716C94.09 29.3716 95.0549 29.0161 95.9014 28.3051L96.0368 25.241C95.7152 25.4272 95.3427 25.5118 94.9195 25.5118C94.3608 25.5288 94.09 25.2748 94.09 24.8008Z" fill="#99A0AE"/>
<path d="M113.17 8.39673H108.548L107.16 16.3195C106.5 15.8285 105.586 15.5915 104.451 15.5915C102.606 15.5915 101.167 16.0825 100.134 17.0474C99.1017 18.0124 98.4415 19.3159 98.1368 20.9411L97.5612 24.1237C97.4766 24.6485 97.4258 25.1225 97.4258 25.5627C97.4258 28.1189 98.8986 29.3886 101.861 29.3886C103.605 29.3886 104.942 28.6607 105.839 27.2217C106.06 28.6776 107.16 29.3886 109.141 29.3886C110.224 29.3886 111.206 29.0331 112.069 28.3221L112.205 25.258C111.883 25.4442 111.477 25.5288 111.003 25.5288C110.529 25.5288 110.292 25.2918 110.292 24.8178C110.292 24.7162 110.309 24.5977 110.326 24.4962L113.17 8.39673ZM105.687 24.7162C105.213 25.2241 104.654 25.478 104.028 25.478C103.385 25.478 102.928 25.3426 102.657 25.0548C102.386 24.767 102.251 24.4962 102.251 24.1914C102.251 23.9036 102.267 23.6836 102.301 23.5143L102.657 21.4828C102.894 20.1454 103.706 19.4683 105.095 19.4683C105.839 19.4683 106.297 19.6883 106.5 20.1454L105.687 24.7162Z" fill="#99A0AE"/>
<path d="M126.814 16.8444C125.815 15.9979 124.359 15.5747 122.395 15.5747C118.011 15.5747 115.505 17.3692 114.879 20.9412L114.303 24.1238C114.219 24.6317 114.168 25.0888 114.168 25.512C114.168 26.714 114.523 27.5943 115.251 28.2037C116.233 28.9994 117.757 29.4057 119.856 29.4057C121.955 29.4057 123.614 29.0163 124.884 28.2037C126.137 27.408 126.932 26.0537 127.288 24.1408L127.863 20.9581C127.948 20.4841 127.999 20.0609 127.999 19.6546C127.982 18.4357 127.593 17.5046 126.814 16.8444ZM123.14 21.4829L122.785 23.5144C122.683 24.09 122.429 24.5809 122.023 24.9872C121.634 25.3935 121.126 25.5966 120.55 25.5966C119.958 25.5966 119.551 25.4274 119.314 25.1057C119.077 24.7841 118.959 24.4793 118.959 24.1915C118.959 23.9038 118.976 23.6837 119.01 23.4975L119.365 21.466C119.467 20.8227 119.721 20.2979 120.127 19.9085C120.516 19.5192 121.007 19.3329 121.6 19.3329C122.192 19.3329 122.599 19.5022 122.836 19.8408C123.073 20.1794 123.191 20.501 123.191 20.7719C123.191 21.0766 123.174 21.2967 123.14 21.4829Z" fill="#99A0AE"/>
<path d="M31.8941 41.0358H9.14163C4.11373 41.0358 0 36.922 0 31.8941V9.14163C0 4.11373 4.11373 0 9.14163 0H31.8941C36.922 0 41.0358 4.11373 41.0358 9.14163V31.8941C41.0188 36.922 36.922 41.0358 31.8941 41.0358Z" fill="#99A0AE"/>
<path d="M32.5377 15.7945V18.9772C32.5377 19.0618 32.47 19.1295 32.3854 19.1295H31.3866C31.3019 19.1295 31.2342 19.1973 31.2342 19.2819C31.1834 20.2468 31.048 21.1949 30.811 22.0921C30.5063 23.2263 30.0661 24.2929 29.4567 25.2917C28.8472 26.3074 28.0008 27.12 26.9173 27.7464C25.8339 28.3727 24.5981 28.6775 23.176 28.6775C21.1615 28.6775 19.7902 28.1357 19.0454 27.0692C18.9946 26.9846 18.8761 26.9846 18.8084 27.0354C17.5726 28.1357 16.2013 28.6775 14.6946 28.6775C12.5785 28.6775 11.1396 28.2204 10.3439 27.3231C9.8191 26.7306 9.54823 25.8334 9.54823 24.6653C9.54823 24.0559 9.61595 23.3618 9.75138 22.6L10.3439 19.2988C10.3608 19.1972 10.2931 19.1126 10.1915 19.1126H9.1758C9.09115 19.1126 9.02344 19.0449 9.02344 18.9602V15.7776C9.02344 15.693 9.09115 15.6252 9.1758 15.6252H15.3041C15.4056 15.6252 15.4734 15.7099 15.4564 15.8115L14.2545 22.6508C14.2037 22.9216 14.1698 23.1586 14.1698 23.3618C14.1698 24.3606 14.6946 24.8684 15.7273 24.8684C16.4552 24.8684 16.997 24.5637 17.3694 23.9374C17.7418 23.311 18.0635 22.2106 18.3174 20.6531L19.1977 15.7776C19.2147 15.7099 19.2824 15.6422 19.3501 15.6422H23.5146C23.6162 15.6422 23.6839 15.7268 23.667 15.8284L22.465 22.6677C22.4142 22.9385 22.3804 23.1756 22.3804 23.3787C22.3804 24.3775 22.9052 24.8854 23.9378 24.8854C25.7662 24.8854 26.6803 22.9724 26.6803 19.1295C26.6803 18.2323 26.6126 17.2335 26.4772 16.15L26.4264 15.8284C26.4095 15.7268 26.4941 15.6422 26.5787 15.6422H32.3854C32.47 15.6252 32.5377 15.7099 32.5377 15.7945Z" fill="white"/>
</svg>
