<svg width="36" height="36" viewBox="0 0 36 36" fill="none" xmlns="http://www.w3.org/2000/svg">
<path d="M0.25 35.75V0.25H35.75V35.75H0.25Z" fill="#101010" stroke="#101010" stroke-width="0.5"/>
<path d="M31.0181 15.5261H24.6706C24.0794 11.2944 20.4079 8.02734 16.0206 8.02734C11.6023 8.02734 7.96187 11.2944 7.37069 15.5261C7.30846 15.9305 7.27734 16.3662 7.27734 16.7706V18.0152H31.0181C31.7026 18.0152 32.2627 17.4552 32.2627 16.7706C32.2627 16.0861 31.7026 15.5261 31.0181 15.5261ZM10.0155 15.5261C10.6066 12.7257 13.0647 10.641 16.0206 10.641C18.9455 10.641 21.4035 12.7257 22.0258 15.5261H10.0155Z" fill="white"/>
<path d="M7.24609 23.0248C7.24609 25.7941 9.48637 28.0344 12.2556 28.0344C13.7491 28.0344 15.0871 27.3809 16.0205 26.323C16.9228 27.3498 18.2608 28.0344 19.7543 28.0344C22.5235 28.0344 24.7638 25.7941 24.7638 23.0248V20.5356H7.27721V23.0248H7.24609ZM17.2651 23.0248H22.1502H22.2746C22.2746 23.8961 21.8079 24.6739 21.1234 25.1095C21.0611 25.1407 21.03 25.1718 20.9678 25.2029C20.9056 25.234 20.8744 25.2651 20.8122 25.2962C20.75 25.3273 20.6878 25.3585 20.6255 25.3585C20.5944 25.3585 20.5633 25.3896 20.5322 25.3896C20.5011 25.3896 20.4699 25.4207 20.4388 25.4207C20.3455 25.4518 20.221 25.4829 20.0966 25.4829C20.0655 25.4829 20.0343 25.4829 19.9721 25.4829C19.8788 25.4829 19.8165 25.4829 19.7232 25.4829C19.6298 25.4829 19.5676 25.4829 19.4743 25.4829C19.1009 25.4518 18.7586 25.3273 18.4475 25.1407C17.7629 24.7362 17.2651 23.9272 17.2651 23.0248ZM14.7759 23.0248C14.7759 23.9272 14.2781 24.7362 13.5624 25.1718C13.189 25.3896 12.7534 25.514 12.2867 25.514C10.9177 25.514 9.79752 24.3939 9.79752 23.0248H14.7759Z" fill="white"/>
</svg>
