<svg width="170" height="36" viewBox="0 0 170 36" fill="none" xmlns="http://www.w3.org/2000/svg">
<path d="M0.25 35.75V0.25H35.75V35.75H0.25Z" fill="#101010" stroke="#101010" stroke-width="0.5"/>
<path d="M31.0181 15.5261H24.6706C24.0794 11.2944 20.4079 8.02734 16.0206 8.02734C11.6023 8.02734 7.96187 11.2944 7.37069 15.5261C7.30846 15.9305 7.27734 16.3662 7.27734 16.7706V18.0152H31.0181C31.7026 18.0152 32.2627 17.4552 32.2627 16.7706C32.2627 16.0861 31.7026 15.5261 31.0181 15.5261ZM10.0155 15.5261C10.6066 12.7257 13.0647 10.641 16.0206 10.641C18.9455 10.641 21.4035 12.7257 22.0258 15.5261H10.0155Z" fill="white"/>
<path d="M7.24609 23.0248C7.24609 25.7941 9.48637 28.0344 12.2556 28.0344C13.7491 28.0344 15.0871 27.3809 16.0205 26.323C16.9228 27.3498 18.2608 28.0344 19.7543 28.0344C22.5235 28.0344 24.7638 25.7941 24.7638 23.0248V20.5356H7.27721V23.0248H7.24609ZM17.2651 23.0248H22.1502H22.2746C22.2746 23.8961 21.8079 24.6739 21.1234 25.1095C21.0611 25.1407 21.03 25.1718 20.9678 25.2029C20.9056 25.234 20.8744 25.2651 20.8122 25.2962C20.75 25.3273 20.6878 25.3585 20.6255 25.3585C20.5944 25.3585 20.5633 25.3896 20.5322 25.3896C20.5011 25.3896 20.4699 25.4207 20.4388 25.4207C20.3455 25.4518 20.221 25.4829 20.0966 25.4829C20.0655 25.4829 20.0343 25.4829 19.9721 25.4829C19.8788 25.4829 19.8165 25.4829 19.7232 25.4829C19.6298 25.4829 19.5676 25.4829 19.4743 25.4829C19.1009 25.4518 18.7586 25.3273 18.4475 25.1407C17.7629 24.7362 17.2651 23.9272 17.2651 23.0248ZM14.7759 23.0248C14.7759 23.9272 14.2781 24.7362 13.5624 25.1718C13.189 25.3896 12.7534 25.514 12.2867 25.514C10.9177 25.514 9.79752 24.3939 9.79752 23.0248H14.7759Z" fill="white"/>
<path d="M94.9004 20.5356C94.9004 24.1138 92.3801 26.5408 88.7085 26.5408C85.0369 26.5408 82.5166 24.1138 82.5166 20.5356V10.5166H85.0058V20.4112C85.0058 22.7137 86.4682 24.2383 88.7085 24.2383C90.9176 24.2383 92.4112 22.7137 92.4112 20.4112V10.5166H94.9004V20.5356Z" fill="#101010"/>
<path d="M96.954 19.8515C96.954 16.9578 99.0387 14.9976 102.088 14.9976C105.137 14.9976 107.253 16.9578 107.253 19.8515V26.4479H104.888V19.8515C104.888 18.0779 103.799 16.9267 102.088 16.9267C100.408 16.9267 99.2876 18.0779 99.2876 19.8515V26.4479H96.9229V19.8515H96.954Z" fill="#101010"/>
<path d="M110.614 13.4417C109.711 13.4417 109.12 12.8817 109.12 12.0727C109.12 11.2637 109.711 10.7036 110.614 10.7036C111.485 10.7036 112.107 11.2637 112.107 12.0727C112.107 12.8505 111.485 13.4417 110.614 13.4417ZM111.796 26.3544H109.462V15.1219H111.796V26.3544Z" fill="#101010"/>
<path d="M125.02 15.0908L120.601 26.3544H117.801L113.383 15.0908H115.872L119.201 24.0208L122.531 15.0908H125.02Z" fill="#101010"/>
<path d="M137.559 21.4383H127.945C128.256 23.3052 129.718 24.612 131.647 24.612C133.234 24.612 134.603 23.6164 135.039 22.2473H137.404C136.75 24.7365 134.354 26.51 131.585 26.51C128.1 26.51 125.58 24.052 125.58 20.6915C125.58 17.3 128.132 14.873 131.585 14.873C135.07 14.873 137.559 17.3311 137.559 20.7227C137.622 20.9716 137.59 21.2205 137.559 21.4383ZM128.038 19.6336H135.381C135.008 17.9534 133.514 16.8022 131.679 16.8022C129.843 16.8022 128.443 17.9845 128.038 19.6336Z" fill="#101010"/>
<path d="M155.574 18.2957H153.365C153.334 17.3 152.432 16.6155 151.125 16.6155C149.942 16.6155 149.071 17.2067 149.071 18.0468C149.071 19.198 150.098 19.3847 151.405 19.6336C152.992 19.9448 155.854 20.4115 155.854 23.1185C155.854 25.141 153.925 26.5412 151.249 26.5412C148.542 26.5412 146.613 25.1099 146.582 23.0252H148.853C148.885 24.1142 149.911 24.7987 151.312 24.7987C152.618 24.7987 153.552 24.1764 153.552 23.243C153.552 22.0917 152.432 21.905 151.156 21.6561C149.476 21.4072 146.8 20.9093 146.8 18.2646C146.8 16.2421 148.573 14.873 151.218 14.873C153.77 14.9042 155.574 16.2732 155.574 18.2957Z" fill="#101010"/>
<path d="M169.452 21.4383H159.837C160.149 23.3052 161.611 24.612 163.54 24.612C165.127 24.612 166.496 23.6164 166.932 22.2473H169.296C168.643 24.7365 166.247 26.51 163.478 26.51C159.993 26.51 157.473 24.052 157.473 20.6915C157.473 17.3 160.024 14.873 163.478 14.873C166.963 14.873 169.452 17.3311 169.452 20.7227C169.514 20.9716 169.483 21.2205 169.452 21.4383ZM159.9 19.6336H167.243C166.869 17.9534 165.407 16.8022 163.54 16.8022C161.704 16.8022 160.304 17.9845 159.9 19.6336Z" fill="#101010"/>
<path d="M145.151 16.9886H142.009L143.067 15.0283H146.24L145.151 16.9886Z" fill="#101010"/>
<path d="M142.008 16.9888H139.644V26.3544H142.008V16.9888Z" fill="#101010"/>
<path d="M44.7432 26.2297V10.8589C44.7432 10.6722 44.8987 10.5166 45.0854 10.5166H52.2419C53.5487 10.5166 54.7 10.7344 55.6956 11.2011C56.6913 11.6679 57.5314 12.259 58.2159 13.0058C58.9005 13.7526 59.4294 14.6238 59.7717 15.5883C60.114 16.5529 60.3006 17.5486 60.3006 18.5754C60.3006 19.6333 60.114 20.6601 59.7406 21.5935C59.3672 22.5581 58.8382 23.3982 58.1226 24.1138C57.4381 24.8606 56.5668 25.4207 55.6023 25.8563C54.6066 26.2919 53.4865 26.5097 52.2108 26.5097H45.0543C44.8987 26.5408 44.7432 26.4163 44.7432 26.2297ZM52.0552 23.2115C52.6464 23.2115 53.2064 23.1182 53.7354 22.9315C54.2643 22.7448 54.7311 22.4648 55.1045 22.0914C55.4778 21.718 55.789 21.2513 56.0379 20.6912C56.2557 20.1311 56.3802 19.4777 56.3802 18.7309C56.3802 17.9531 56.2868 17.2374 56.069 16.6463C55.8512 16.0551 55.5401 15.5261 55.1667 15.1216C54.7933 14.7171 54.3266 14.406 53.7976 14.2193C53.2687 14.0326 52.6775 13.9081 52.0241 13.9081H48.9748C48.7881 13.9081 48.6325 14.0637 48.6325 14.2504V22.9004C48.6325 23.0871 48.7881 23.2426 48.9748 23.2426H52.0552V23.2115Z" fill="#101010"/>
<path d="M62.541 26.2297V10.8589C62.541 10.6722 62.6966 10.5166 62.8833 10.5166H72.2178C72.809 10.5166 73.3379 10.6099 73.8669 10.7966C74.3647 10.9833 74.8003 11.2322 75.1737 11.5745C75.5471 11.9168 75.8271 12.3213 76.0449 12.8191C76.2627 13.3169 76.3561 13.8459 76.3561 14.4682C76.3561 15.3394 76.1071 16.0862 75.6404 16.7085C75.1426 17.3308 74.458 17.7353 73.5868 17.922C74.0847 18.0153 74.5514 18.202 74.9559 18.4198C75.3915 18.6376 75.7649 18.9176 76.076 19.2599C76.3872 19.6022 76.6361 19.9756 76.7917 20.4112C76.9784 20.8468 77.0406 21.3446 77.0406 21.8736C77.0406 22.9937 76.8228 23.8649 76.4183 24.4872C76.0138 25.1095 75.4537 25.5762 74.8314 25.8874C74.178 26.1985 73.4935 26.3541 72.7156 26.4163C71.9377 26.4786 71.2221 26.5097 70.5376 26.5097H62.8522C62.6966 26.5408 62.541 26.4163 62.541 26.2297ZM71.2221 16.9263C71.8133 16.9263 72.2178 16.7396 72.4978 16.3973C72.7467 16.0551 72.9023 15.6506 72.9023 15.1838C72.9023 14.7794 72.7778 14.3749 72.5289 14.0637C72.28 13.7214 71.8755 13.5659 71.2843 13.5659H66.7727C66.586 13.5659 66.4304 13.7214 66.4304 13.9081V16.6151C66.4304 16.8018 66.586 16.9574 66.7727 16.9574H71.2221V16.9263ZM66.4615 19.8822V23.0248C66.4615 23.2115 66.6171 23.3671 66.8038 23.3671H70.8798C71.1599 23.3671 71.4399 23.336 71.7199 23.2737C72.0311 23.2115 72.28 23.1182 72.5289 22.9626C72.7778 22.807 72.9645 22.6203 73.1201 22.3403C73.2757 22.0914 73.369 21.7491 73.369 21.3446C73.369 20.9712 73.2757 20.6912 73.1201 20.4734C72.9645 20.2556 72.7467 20.0689 72.5289 19.9133C72.28 19.7889 72.0311 19.6955 71.751 19.6333C71.471 19.6022 71.2221 19.5711 70.9732 19.5711H66.8038C66.586 19.5399 66.4615 19.6955 66.4615 19.8822Z" fill="#101010"/>
</svg>
