<svg width="196" height="36" viewBox="0 0 196 36" fill="none" xmlns="http://www.w3.org/2000/svg">
<path d="M106.721 20.5649C106.721 24.8238 103.705 27.7124 99.3117 27.7124C94.9182 27.7124 91.9023 24.8238 91.9023 20.5649V8.64014H94.881V20.4168C94.881 23.1573 96.6309 24.9719 99.3117 24.9719C101.955 24.9719 103.742 23.1573 103.742 20.4168V8.64014H106.721V20.5649Z" fill="white"/>
<path d="M109.178 19.7504C109.178 16.3063 111.672 13.9731 115.321 13.9731C118.97 13.9731 121.502 16.3063 121.502 19.7504V27.6015H118.672V19.7504C118.672 17.6395 117.369 16.2692 115.321 16.2692C113.311 16.2692 111.97 17.6395 111.97 19.7504V27.6015H109.141V19.7504H109.178Z" fill="white"/>
<path d="M125.524 12.1212C124.444 12.1212 123.736 11.4546 123.736 10.4918C123.736 9.5289 124.444 8.8623 125.524 8.8623C126.566 8.8623 127.311 9.5289 127.311 10.4918C127.311 11.4176 126.566 12.1212 125.524 12.1212ZM126.938 27.4901H124.146V14.1211H126.938V27.4901Z" fill="white"/>
<path d="M142.761 14.084L137.474 27.4901H134.123L128.836 14.084H131.815L135.798 24.7126L139.782 14.084H142.761Z" fill="white"/>
<path d="M157.766 21.6388H146.261C146.634 23.8608 148.384 25.4162 150.692 25.4162C152.591 25.4162 154.229 24.2311 154.75 22.6016H157.58C156.798 25.5643 153.931 27.6752 150.618 27.6752C146.447 27.6752 143.432 24.7496 143.432 20.75C143.432 16.7133 146.485 13.8247 150.618 13.8247C154.788 13.8247 157.766 16.7504 157.766 20.787C157.841 21.0833 157.804 21.3795 157.766 21.6388ZM146.373 19.4908H155.16C154.713 17.491 152.926 16.1208 150.729 16.1208C148.533 16.1208 146.857 17.5281 146.373 19.4908Z" fill="white"/>
<path d="M179.325 17.8984H176.681C176.644 16.7133 175.564 15.8986 174 15.8986C172.586 15.8986 171.543 16.6022 171.543 17.6021C171.543 18.9724 172.772 19.1946 174.336 19.4908C176.234 19.8612 179.66 20.4167 179.66 23.6386C179.66 26.0457 177.351 27.7123 174.149 27.7123C170.91 27.7123 168.602 26.0087 168.564 23.5275H171.282C171.32 24.8236 172.548 25.6384 174.224 25.6384C175.788 25.6384 176.905 24.8977 176.905 23.7867C176.905 22.4165 175.564 22.1943 174.038 21.898C172.027 21.6017 168.825 21.0092 168.825 17.8614C168.825 15.4542 170.947 13.8247 174.112 13.8247C177.165 13.8617 179.325 15.4912 179.325 17.8984Z" fill="white"/>
<path d="M195.93 21.6388H184.425C184.798 23.8608 186.548 25.4162 188.856 25.4162C190.755 25.4162 192.393 24.2311 192.914 22.6016H195.744C194.962 25.5643 192.095 27.6752 188.782 27.6752C184.612 27.6752 181.596 24.7496 181.596 20.75C181.596 16.7133 184.649 13.8247 188.782 13.8247C192.952 13.8247 195.93 16.7504 195.93 20.787C196.005 21.0833 195.968 21.3795 195.93 21.6388ZM184.5 19.4908H193.287C192.84 17.491 191.09 16.1208 188.856 16.1208C186.659 16.1208 184.984 17.5281 184.5 19.4908Z" fill="white"/>
<path d="M166.85 16.3428H163.09L164.356 14.0103H168.153L166.85 16.3428Z" fill="white"/>
<path d="M163.091 16.3433H160.262V27.4903H163.091V16.3433Z" fill="white"/>
<path d="M46.7012 27.342V9.04751C46.7012 8.82531 46.8873 8.64014 47.1107 8.64014H55.6743C57.238 8.64014 58.6156 8.89938 59.8071 9.45488C60.9985 10.0104 62.0038 10.714 62.8229 11.6028C63.6421 12.4916 64.275 13.5286 64.6846 14.6766C65.0941 15.8246 65.3175 17.0097 65.3175 18.2318C65.3175 19.4909 65.0941 20.7131 64.6473 21.8241C64.2006 22.9721 63.5676 23.972 62.7112 24.8238C61.8921 25.7126 60.8496 26.3792 59.6954 26.8976C58.5039 27.4161 57.1636 27.6753 55.637 27.6753H47.0735C46.8873 27.7124 46.7012 27.5642 46.7012 27.342ZM55.4509 23.7498C56.1583 23.7498 56.8285 23.6387 57.4614 23.4165C58.0944 23.1943 58.6529 22.861 59.0997 22.4166C59.5465 21.9722 59.9188 21.4167 60.2167 20.7501C60.4773 20.0835 60.6262 19.3058 60.6262 18.417C60.6262 17.4911 60.5145 16.6394 60.2539 15.9357C59.9933 15.2321 59.6209 14.6025 59.1741 14.1211C58.7273 13.6397 58.1689 13.2693 57.5359 13.0471C56.9029 12.8249 56.1955 12.6768 55.4136 12.6768H51.7648C51.5414 12.6768 51.3553 12.862 51.3553 13.0842V23.3795C51.3553 23.6017 51.5414 23.7868 51.7648 23.7868H55.4509V23.7498Z" fill="white"/>
<path d="M67.998 27.342V9.04751C67.998 8.82531 68.1842 8.64014 68.4076 8.64014H79.5774C80.2849 8.64014 80.9178 8.75123 81.5508 8.97344C82.1465 9.19564 82.6678 9.4919 83.1146 9.89927C83.5613 10.3066 83.8964 10.7881 84.1571 11.3806C84.4177 11.9731 84.5294 12.6027 84.5294 13.3434C84.5294 14.3803 84.2315 15.2691 83.673 16.0098C83.0773 16.7505 82.2582 17.2319 81.2157 17.4541C81.8114 17.5652 82.3699 17.7874 82.8539 18.0466C83.3752 18.3059 83.822 18.6392 84.1943 19.0465C84.5666 19.4539 84.8645 19.8983 85.0507 20.4168C85.274 20.9353 85.3485 21.5278 85.3485 22.1574C85.3485 23.4906 85.0879 24.5275 84.6039 25.2682C84.1198 26.0088 83.4496 26.5643 82.705 26.9347C81.9231 27.305 81.104 27.4902 80.1732 27.5642C79.2423 27.6383 78.386 27.6753 77.5669 27.6753H68.3704C68.1842 27.7124 67.998 27.5642 67.998 27.342ZM78.386 16.269C79.0934 16.269 79.5774 16.0468 79.9125 15.6395C80.2104 15.2321 80.3966 14.7507 80.3966 14.1952C80.3966 13.7137 80.2476 13.2323 79.9498 12.862C79.6519 12.4546 79.1679 12.2694 78.4605 12.2694H73.0617C72.8383 12.2694 72.6521 12.4546 72.6521 12.6768V15.8987C72.6521 16.1209 72.8383 16.3061 73.0617 16.3061H78.386V16.269ZM72.6894 19.7872V23.5276C72.6894 23.7498 72.8755 23.935 73.0989 23.935H77.9764C78.3115 23.935 78.6466 23.8979 78.9817 23.8239C79.354 23.7498 79.6519 23.6387 79.9498 23.4535C80.2476 23.2684 80.471 23.0462 80.6572 22.7129C80.8434 22.4166 80.955 22.0092 80.955 21.5278C80.955 21.0834 80.8434 20.7501 80.6572 20.4909C80.471 20.2316 80.2104 20.0094 79.9498 19.8243C79.6519 19.6761 79.354 19.565 79.019 19.491C78.6839 19.4539 78.386 19.4169 78.0881 19.4169H73.0989C72.8383 19.3798 72.6894 19.565 72.6894 19.7872Z" fill="white"/>
<path d="M0.5 35.5V0.5H35.5V35.5H0.5Z" stroke="white"/>
<path d="M31.0161 15.5265H24.6687C24.0775 11.2949 20.4059 8.02783 16.0187 8.02783C11.6004 8.02783 7.95992 11.2949 7.36874 15.5265C7.30651 15.931 7.27539 16.3666 7.27539 16.7711V18.0157H31.0161C31.7006 18.0157 32.2607 17.4557 32.2607 16.7711C32.2607 16.0866 31.7006 15.5265 31.0161 15.5265ZM10.0135 15.5265C10.6047 12.7262 13.0628 10.6415 16.0187 10.6415C18.9435 10.6415 21.4016 12.7262 22.0239 15.5265H10.0135Z" fill="white"/>
<path d="M7.24609 23.0253C7.24609 25.7946 9.48637 28.0348 12.2556 28.0348C13.7491 28.0348 15.0871 27.3814 16.0205 26.3235C16.9228 27.3503 18.2608 28.0348 19.7543 28.0348C22.5235 28.0348 24.7638 25.7946 24.7638 23.0253V20.5361H7.27721V23.0253H7.24609ZM17.2651 23.0253H22.1502H22.2746C22.2746 23.8965 21.8079 24.6744 21.1234 25.11C21.0611 25.1411 21.03 25.1723 20.9678 25.2034C20.9056 25.2345 20.8744 25.2656 20.8122 25.2967C20.75 25.3278 20.6878 25.359 20.6255 25.359C20.5944 25.359 20.5633 25.3901 20.5322 25.3901C20.5011 25.3901 20.4699 25.4212 20.4388 25.4212C20.3455 25.4523 20.221 25.4834 20.0966 25.4834C20.0655 25.4834 20.0343 25.4834 19.9721 25.4834C19.8788 25.4834 19.8165 25.4834 19.7232 25.4834C19.6298 25.4834 19.5676 25.4834 19.4743 25.4834C19.1009 25.4523 18.7586 25.3278 18.4475 25.1411C17.7629 24.7366 17.2651 23.9277 17.2651 23.0253ZM14.7759 23.0253C14.7759 23.9277 14.2781 24.7366 13.5624 25.1723C13.189 25.3901 12.7534 25.5145 12.2867 25.5145C10.9177 25.5145 9.79752 24.3944 9.79752 23.0253H14.7759Z" fill="white"/>
</svg>
