<svg width="64" height="64" viewBox="0 0 64 64" fill="none" xmlns="http://www.w3.org/2000/svg">
<path d="M32 64C49.6439 64 64 49.6452 64 32C64 28.9544 63.5749 25.9531 62.7331 23.0788C62.3184 21.6654 60.8424 20.8535 59.4251 21.2682C58.0104 21.6816 57.2012 23.1628 57.6146 24.5762C58.3119 26.9642 58.6667 29.4629 58.6667 32C58.6667 46.7038 46.7038 58.6667 32 58.6667C17.2962 58.6667 5.33333 46.7038 5.33333 32C5.33333 17.2962 17.2962 5.33333 32 5.33333C37.3438 5.33333 42.485 6.89583 46.8678 9.85091C48.0879 10.6745 49.7467 10.3509 50.569 9.13086C51.3919 7.90951 51.071 6.25195 49.8496 5.42904C44.5827 1.8776 38.4108 0 32 0C14.3561 0 0 14.3548 0 32C0 49.6452 14.3561 64 32 64V64Z" fill="#109283"/>
<path d="M59.4478 6.11475L31.9998 33.5614L23.2186 24.7814C22.1769 23.7404 20.4894 23.7404 19.4478 24.7814C18.4067 25.8231 18.4067 27.5106 19.4478 28.5522L30.1144 39.2189C30.6359 39.7404 31.3169 40.0002 31.9998 40.0002C32.6828 40.0002 33.3638 39.7404 33.8853 39.2189L63.2186 9.88558C64.2596 8.84391 64.2596 7.15641 63.2186 6.11475C62.1769 5.07373 60.4894 5.07373 59.4478 6.11475Z" fill="#109283"/>
</svg>
